<svg width="13" height="11" viewBox="0 0 13 11" fill="none" xmlns="http://www.w3.org/2000/svg">
<path fill-rule="evenodd" clip-rule="evenodd" d="M12.9495 3.93088V10.3859L10.1861 9.00424V10.3859H0.978516V3.93088H1.43188C1.28795 3.74378 1.17641 3.53149 1.09725 3.29401C1.0181 3.05654 0.978516 2.80827 0.978516 2.5492C0.978516 2.23257 1.03968 1.93392 1.16202 1.65327C1.27716 1.37262 1.43908 1.12794 1.64777 0.919252C1.85646 0.71056 2.10113 0.548644 2.38178 0.433504C2.66244 0.311168 2.96108 0.25 3.27772 0.25C3.65912 0.25 4.01174 0.336355 4.33557 0.509065C4.6522 0.674579 4.91487 0.894065 5.12356 1.16752C5.33225 0.894065 5.59851 0.674579 5.92234 0.509065C6.23898 0.336355 6.5844 0.25 6.9586 0.25C7.27524 0.25 7.57388 0.311168 7.85454 0.433504C8.13519 0.548644 8.37986 0.71056 8.58855 0.919252C8.79724 1.12794 8.96276 1.37262 9.08509 1.65327C9.20743 1.93392 9.2686 2.23257 9.2686 2.5492C9.2686 2.80827 9.22902 3.05654 9.14986 3.29401C9.06351 3.53149 8.94837 3.74378 8.80444 3.93088H10.1861V5.31256L12.9495 3.93088ZM6.9586 1.16752C6.7715 1.16752 6.59519 1.2035 6.42968 1.27547C6.25697 1.34743 6.10944 1.44818 5.98711 1.57771C5.85758 1.70004 5.75683 1.84757 5.68487 2.02028C5.6129 2.18579 5.57692 2.3621 5.57692 2.5492C5.57692 2.7435 5.6129 2.92341 5.68487 3.08892C5.75683 3.25444 5.85758 3.40196 5.98711 3.53149C6.10944 3.65383 6.25697 3.75098 6.42968 3.82294C6.59519 3.8949 6.7715 3.93088 6.9586 3.93088C7.1529 3.93088 7.33281 3.8949 7.49832 3.82294C7.66384 3.75098 7.81136 3.65383 7.94089 3.53149C8.06323 3.40196 8.16038 3.25444 8.23234 3.08892C8.3043 2.92341 8.34028 2.7435 8.34028 2.5492C8.34028 2.3621 8.3043 2.18579 8.23234 2.02028C8.16038 1.84757 8.06323 1.70004 7.94089 1.57771C7.81136 1.44818 7.66384 1.34743 7.49832 1.27547C7.33281 1.2035 7.1529 1.16752 6.9586 1.16752ZM2.00398 3.08892C1.93202 2.92341 1.89604 2.7435 1.89604 2.5492C1.89604 2.3621 1.93202 2.18579 2.00398 2.02028C2.07594 1.84757 2.17669 1.70004 2.30622 1.57771C2.42856 1.44818 2.57249 1.34743 2.738 1.27547C2.90351 1.2035 3.08342 1.16752 3.27772 1.16752C3.47202 1.16752 3.65192 1.2035 3.81744 1.27547C3.98295 1.34743 4.13047 1.44818 4.26001 1.57771C4.38234 1.70004 4.47949 1.84757 4.55146 2.02028C4.62342 2.18579 4.6594 2.3621 4.6594 2.5492C4.6594 2.7435 4.62342 2.92341 4.55146 3.08892C4.47949 3.25444 4.38234 3.40196 4.26001 3.53149C4.13047 3.65383 3.98295 3.75098 3.81744 3.82294C3.65192 3.8949 3.47202 3.93088 3.27772 3.93088C3.08342 3.93088 2.90351 3.8949 2.738 3.82294C2.57249 3.75098 2.42856 3.65383 2.30622 3.53149C2.17669 3.40196 2.07594 3.25444 2.00398 3.08892ZM9.2686 9.45761V4.8592H1.89604V9.45761H9.2686ZM12.032 5.42051V8.8963L10.1861 7.96798V6.34882L12.032 5.42051Z" fill="white"/>
</svg>
